<svg width="457" height="553" viewBox="0 0 457 553" fill="none" xmlns="http://www.w3.org/2000/svg">
<path d="M228.5 0L456.698 167.25H0.302307L228.5 0Z" fill="white"/>
<rect x="1" y="167" width="60" height="328" fill="white"/>
<rect x="396" y="167" width="60" height="328" fill="white"/>
<rect x="198" y="167" width="60" height="328" fill="white"/>
<rect x="298" y="167" width="60" height="328" fill="white"/>
<rect x="97" y="167" width="60" height="328" fill="white"/>
<rect x="1" y="495" width="455" height="58" fill="white"/>
<path d="M188.559 101.982V111H183.285V85.4062H193.27C195.191 85.4062 196.879 85.7578 198.332 86.4609C199.797 87.1641 200.922 88.166 201.707 89.4668C202.492 90.7559 202.885 92.2266 202.885 93.8789C202.885 96.3867 202.023 98.3672 200.301 99.8203C198.59 101.262 196.217 101.982 193.182 101.982H188.559ZM188.559 97.7109H193.27C194.664 97.7109 195.725 97.3828 196.451 96.7266C197.189 96.0703 197.559 95.1328 197.559 93.9141C197.559 92.6602 197.189 91.6465 196.451 90.873C195.713 90.0996 194.693 89.7012 193.393 89.6777H188.559V97.7109ZM212.131 111H206.857V85.4062H212.131V111ZM222.309 106.764H233.506V111H217.035V85.4062H222.309V106.764ZM251.348 105.727H242.102L240.344 111H234.736L244.264 85.4062H249.15L258.73 111H253.123L251.348 105.727ZM243.525 101.455H249.924L246.707 91.875L243.525 101.455ZM270.596 101.631H266.395V111H261.121V85.4062H270.631C273.654 85.4062 275.986 86.0801 277.627 87.4277C279.268 88.7754 280.088 90.6797 280.088 93.1406C280.088 94.8867 279.707 96.3457 278.945 97.5176C278.195 98.6777 277.053 99.6035 275.518 100.295L281.055 110.754V111H275.395L270.596 101.631ZM266.395 97.3594H270.648C271.973 97.3594 272.998 97.0254 273.725 96.3574C274.451 95.6777 274.814 94.7461 274.814 93.5625C274.814 92.3555 274.469 91.4062 273.777 90.7148C273.098 90.0234 272.049 89.6777 270.631 89.6777H266.395V97.3594Z" fill="black"/>
<path d="M183.637 528.77L187.504 515.938H191.418L185.477 533H181.809L175.891 515.938H179.793L183.637 528.77ZM201.777 529.484H195.613L194.441 533H190.703L197.055 515.938H200.312L206.699 533H202.961L201.777 529.484ZM196.562 526.637H200.828L198.684 520.25L196.562 526.637ZM211.809 530.176H219.273V533H208.293V515.938H211.809V530.176ZM234.566 524.855C234.566 526.535 234.27 528.008 233.676 529.273C233.082 530.539 232.23 531.516 231.121 532.203C230.02 532.891 228.754 533.234 227.324 533.234C225.91 533.234 224.648 532.895 223.539 532.215C222.43 531.535 221.57 530.566 220.961 529.309C220.352 528.043 220.043 526.59 220.035 524.949V524.105C220.035 522.426 220.336 520.949 220.938 519.676C221.547 518.395 222.402 517.414 223.504 516.734C224.613 516.047 225.879 515.703 227.301 515.703C228.723 515.703 229.984 516.047 231.086 516.734C232.195 517.414 233.051 518.395 233.652 519.676C234.262 520.949 234.566 522.422 234.566 524.094V524.855ZM231.004 524.082C231.004 522.293 230.684 520.934 230.043 520.004C229.402 519.074 228.488 518.609 227.301 518.609C226.121 518.609 225.211 519.07 224.57 519.992C223.93 520.906 223.605 522.25 223.598 524.023V524.855C223.598 526.598 223.918 527.949 224.559 528.91C225.199 529.871 226.121 530.352 227.324 530.352C228.504 530.352 229.41 529.891 230.043 528.969C230.676 528.039 230.996 526.688 231.004 524.914V524.082ZM243.438 526.754H240.637V533H237.121V515.938H243.461C245.477 515.938 247.031 516.387 248.125 517.285C249.219 518.184 249.766 519.453 249.766 521.094C249.766 522.258 249.512 523.23 249.004 524.012C248.504 524.785 247.742 525.402 246.719 525.863L250.41 532.836V533H246.637L243.438 526.754ZM240.637 523.906H243.473C244.355 523.906 245.039 523.684 245.523 523.238C246.008 522.785 246.25 522.164 246.25 521.375C246.25 520.57 246.02 519.938 245.559 519.477C245.105 519.016 244.406 518.785 243.461 518.785H240.637V523.906ZM262.715 525.605H255.965V530.176H263.887V533H252.449V515.938H263.863V518.785H255.965V522.852H262.715V525.605ZM274.797 528.523C274.797 527.859 274.562 527.352 274.094 527C273.625 526.641 272.781 526.266 271.562 525.875C270.344 525.477 269.379 525.086 268.668 524.703C266.73 523.656 265.762 522.246 265.762 520.473C265.762 519.551 266.02 518.73 266.535 518.012C267.059 517.285 267.805 516.719 268.773 516.312C269.75 515.906 270.844 515.703 272.055 515.703C273.273 515.703 274.359 515.926 275.312 516.371C276.266 516.809 277.004 517.43 277.527 518.234C278.059 519.039 278.324 519.953 278.324 520.977H274.809C274.809 520.195 274.562 519.59 274.07 519.16C273.578 518.723 272.887 518.504 271.996 518.504C271.137 518.504 270.469 518.688 269.992 519.055C269.516 519.414 269.277 519.891 269.277 520.484C269.277 521.039 269.555 521.504 270.109 521.879C270.672 522.254 271.496 522.605 272.582 522.934C274.582 523.535 276.039 524.281 276.953 525.172C277.867 526.062 278.324 527.172 278.324 528.5C278.324 529.977 277.766 531.137 276.648 531.98C275.531 532.816 274.027 533.234 272.137 533.234C270.824 533.234 269.629 532.996 268.551 532.52C267.473 532.035 266.648 531.375 266.078 530.539C265.516 529.703 265.234 528.734 265.234 527.633H268.762C268.762 529.516 269.887 530.457 272.137 530.457C272.973 530.457 273.625 530.289 274.094 529.953C274.562 529.609 274.797 529.133 274.797 528.523Z" fill="black"/>
<path d="M183.637 528.77L187.504 515.938H191.418L185.477 533H181.809L175.891 515.938H179.793L183.637 528.77ZM201.777 529.484H195.613L194.441 533H190.703L197.055 515.938H200.312L206.699 533H202.961L201.777 529.484ZM196.562 526.637H200.828L198.684 520.25L196.562 526.637ZM211.809 530.176H219.273V533H208.293V515.938H211.809V530.176ZM234.566 524.855C234.566 526.535 234.27 528.008 233.676 529.273C233.082 530.539 232.23 531.516 231.121 532.203C230.02 532.891 228.754 533.234 227.324 533.234C225.91 533.234 224.648 532.895 223.539 532.215C222.43 531.535 221.57 530.566 220.961 529.309C220.352 528.043 220.043 526.59 220.035 524.949V524.105C220.035 522.426 220.336 520.949 220.938 519.676C221.547 518.395 222.402 517.414 223.504 516.734C224.613 516.047 225.879 515.703 227.301 515.703C228.723 515.703 229.984 516.047 231.086 516.734C232.195 517.414 233.051 518.395 233.652 519.676C234.262 520.949 234.566 522.422 234.566 524.094V524.855ZM231.004 524.082C231.004 522.293 230.684 520.934 230.043 520.004C229.402 519.074 228.488 518.609 227.301 518.609C226.121 518.609 225.211 519.07 224.57 519.992C223.93 520.906 223.605 522.25 223.598 524.023V524.855C223.598 526.598 223.918 527.949 224.559 528.91C225.199 529.871 226.121 530.352 227.324 530.352C228.504 530.352 229.41 529.891 230.043 528.969C230.676 528.039 230.996 526.688 231.004 524.914V524.082ZM243.438 526.754H240.637V533H237.121V515.938H243.461C245.477 515.938 247.031 516.387 248.125 517.285C249.219 518.184 249.766 519.453 249.766 521.094C249.766 522.258 249.512 523.23 249.004 524.012C248.504 524.785 247.742 525.402 246.719 525.863L250.41 532.836V533H246.637L243.438 526.754ZM240.637 523.906H243.473C244.355 523.906 245.039 523.684 245.523 523.238C246.008 522.785 246.25 522.164 246.25 521.375C246.25 520.57 246.02 519.938 245.559 519.477C245.105 519.016 244.406 518.785 243.461 518.785H240.637V523.906ZM262.715 525.605H255.965V530.176H263.887V533H252.449V515.938H263.863V518.785H255.965V522.852H262.715V525.605ZM274.797 528.523C274.797 527.859 274.562 527.352 274.094 527C273.625 526.641 272.781 526.266 271.562 525.875C270.344 525.477 269.379 525.086 268.668 524.703C266.73 523.656 265.762 522.246 265.762 520.473C265.762 519.551 266.02 518.73 266.535 518.012C267.059 517.285 267.805 516.719 268.773 516.312C269.75 515.906 270.844 515.703 272.055 515.703C273.273 515.703 274.359 515.926 275.312 516.371C276.266 516.809 277.004 517.43 277.527 518.234C278.059 519.039 278.324 519.953 278.324 520.977H274.809C274.809 520.195 274.562 519.59 274.07 519.16C273.578 518.723 272.887 518.504 271.996 518.504C271.137 518.504 270.469 518.688 269.992 519.055C269.516 519.414 269.277 519.891 269.277 520.484C269.277 521.039 269.555 521.504 270.109 521.879C270.672 522.254 271.496 522.605 272.582 522.934C274.582 523.535 276.039 524.281 276.953 525.172C277.867 526.062 278.324 527.172 278.324 528.5C278.324 529.977 277.766 531.137 276.648 531.98C275.531 532.816 274.027 533.234 272.137 533.234C270.824 533.234 269.629 532.996 268.551 532.52C267.473 532.035 266.648 531.375 266.078 530.539C265.516 529.703 265.234 528.734 265.234 527.633H268.762C268.762 529.516 269.887 530.457 272.137 530.457C272.973 530.457 273.625 530.289 274.094 529.953C274.562 529.609 274.797 529.133 274.797 528.523Z" fill="black"/>
</svg>
